HIERARCHY
ROOT newVegas:Hips
{
	OFFSET 0.000000 96.479958 0.000000
	CHANNELS 6 Xposition Yposition Zposition Xrotation Yrotation Zrotation
	JOINT newVegas:Pelvis
	{
		OFFSET 0.000000 0.000000 0.000000
		CHANNELS 3 Xrotation Yrotation Zrotation
		JOINT newVegas:LeftUpLeg
		{
			OFFSET 18.735201 -5.666702 -4.541200
			CHANNELS 3 Xrotation Yrotation Zrotation
			JOINT newVegas:LeftLeg
			{
				OFFSET -0.021200 -31.938179 0.493100
				CHANNELS 3 Xrotation Yrotation Zrotation
				JOINT newVegas:LeftFoot
				{
					OFFSET 0.021200 -31.938179 -4.336299
					CHANNELS 3 Xrotation Yrotation Zrotation
					JOINT newVegas:LeftToeBase
					{
						OFFSET 0.943001 -26.722000 15.023500
						CHANNELS 3 Xrotation Yrotation Zrotation
						End Site
						{
							OFFSET 0.000000 30.670183 0.000000
						}
					}
				}
				JOINT newVegas:Left_PantLeg
				{
					OFFSET 0.663870 -9.044666 -1.108900
					CHANNELS 3 Xrotation Yrotation Zrotation
					End Site
					{
						OFFSET 1.415995 20.635357 0.000000
					}
				}
			}
		}
		JOINT newVegas:RightUpLeg
		{
			OFFSET -18.735201 -5.666702 -4.541200
			CHANNELS 3 Xrotation Yrotation Zrotation
			JOINT newVegas:RightLeg
			{
				OFFSET 0.018946 -31.938133 0.493100
				CHANNELS 3 Xrotation Yrotation Zrotation
				JOINT newVegas:RightFoot
				{
					OFFSET -0.018946 -31.938126 -4.336299
					CHANNELS 3 Xrotation Yrotation Zrotation
					JOINT newVegas:RightToeBase
					{
						OFFSET -0.943001 -26.722004 15.023500
						CHANNELS 3 Xrotation Yrotation Zrotation
						End Site
						{
							OFFSET 0.000000 30.670187 0.000000
						}
					}
				}
				JOINT newVegas:Right_PantLeg
				{
					OFFSET -0.661674 -9.044716 -1.108900
					CHANNELS 3 Xrotation Yrotation Zrotation
					End Site
					{
						OFFSET -1.415958 20.635269 0.000000
					}
				}
			}
		}
	}
	JOINT newVegas:Spine
	{
		OFFSET 0.000000 10.199997 -0.299500
		CHANNELS 3 Xrotation Yrotation Zrotation
		JOINT newVegas:Spine1
		{
			OFFSET 0.000000 11.900002 -1.516600
			CHANNELS 3 Xrotation Yrotation Zrotation
			JOINT newVegas:Spine2
			{
				OFFSET 0.000000 13.600006 -2.842500
				CHANNELS 3 Xrotation Yrotation Zrotation
				JOINT newVegas:Neck
				{
					OFFSET 0.000000 9.624100 -2.890100
					CHANNELS 3 Xrotation Yrotation Zrotation
					JOINT newVegas:Head
					{
						OFFSET 0.000000 14.068802 -1.351900
						CHANNELS 3 Xrotation Yrotation Zrotation
						JOINT newVegas:Hair_Back
						{
							OFFSET 0.000000 3.231903 -17.524799
							CHANNELS 3 Xrotation Yrotation Zrotation
							End Site
							{
								OFFSET 0.000000 19.849884 0.000000
							}
						}
						JOINT newVegas:Hair_Front
						{
							OFFSET 0.000000 31.260406 4.573800
							CHANNELS 3 Xrotation Yrotation Zrotation
							JOINT newVegas:Hair_Front1
							{
								OFFSET 0.000000 2.284103 11.993300
								CHANNELS 3 Xrotation Yrotation Zrotation
								JOINT newVegas:Hair_Front2
								{
									OFFSET 0.000000 2.284103 11.993300
									CHANNELS 3 Xrotation Yrotation Zrotation
									End Site
									{
										OFFSET 0.000000 12.208862 0.000000
									}
								}
							}
						}
						JOINT newVegas:Jowel
						{
							OFFSET 0.000000 -7.458206 6.864100
							CHANNELS 3 Xrotation Yrotation Zrotation
							End Site
							{
								OFFSET 0.000000 19.849884 0.000000
							}
						}
					}
				}
				JOINT newVegas:LeftShoulder
				{
					OFFSET 15.263000 10.923401 -0.547700
					CHANNELS 3 Xrotation Yrotation Zrotation
					JOINT newVegas:LeftArm
					{
						OFFSET 25.438599 -2.830597 -13.032500
						CHANNELS 3 Xrotation Yrotation Zrotation
						JOINT newVegas:LeftForeArm
						{
							OFFSET 29.960503 0.000000 0.000000
							CHANNELS 3 Xrotation Yrotation Zrotation
							JOINT newVegas:LeftHand
							{
								OFFSET 27.849251 0.000000 0.000000
								CHANNELS 3 Xrotation Yrotation Zrotation
								JOINT newVegas:LeftHandThumb1
								{
									OFFSET 4.487587 -3.305161 6.305391
									CHANNELS 3 Xrotation Yrotation Zrotation
									JOINT newVegas:LeftHandThumb2
									{
										OFFSET 5.480453 -3.164139 3.164143
										CHANNELS 3 Xrotation Yrotation Zrotation
										JOINT newVegas:LeftHandThumb3
										{
											OFFSET 5.159721 -2.978973 2.978967
											CHANNELS 3 Xrotation Yrotation Zrotation
											End Site
											{
												OFFSET 2.494507 5.926697 1.738678
											}
										}
									}
								}
								JOINT newVegas:LeftHandIndex1
								{
									OFFSET 18.578728 -0.527832 5.208049
									CHANNELS 3 Xrotation Yrotation Zrotation
									JOINT newVegas:LeftHandIndex2
									{
										OFFSET 3.192009 0.000000 0.000000
										CHANNELS 3 Xrotation Yrotation Zrotation
										JOINT newVegas:LeftHandIndex3
										{
											OFFSET 3.835129 0.000000 0.000000
											CHANNELS 3 Xrotation Yrotation Zrotation
											End Site
											{
												OFFSET -0.034599 3.816971 0.371180
											}
										}
									}
								}
								JOINT newVegas:LeftHandMiddle1
								{
									OFFSET 18.476105 0.000000 0.000000
									CHANNELS 3 Xrotation Yrotation Zrotation
									JOINT newVegas:LeftHandMiddle2
									{
										OFFSET 3.324875 0.000000 0.000000
										CHANNELS 3 Xrotation Yrotation Zrotation
										JOINT newVegas:LeftHandMiddle3
										{
											OFFSET 4.596550 0.000000 0.000000
											CHANNELS 3 Xrotation Yrotation Zrotation
											End Site
											{
												OFFSET 0.057701 4.578827 0.399218
											}
										}
									}
								}
								JOINT newVegas:LeftHandRing1
								{
									OFFSET 17.732719 0.121887 -4.201567
									CHANNELS 3 Xrotation Yrotation Zrotation
									JOINT newVegas:LeftHandRing2
									{
										OFFSET 2.733170 0.000000 0.000000
										CHANNELS 3 Xrotation Yrotation Zrotation
										JOINT newVegas:LeftHandRing3
										{
											OFFSET 3.178268 0.000000 0.000000
											CHANNELS 3 Xrotation Yrotation Zrotation
											End Site
											{
												OFFSET 0.119102 3.170624 0.185394
											}
										}
									}
								}
								JOINT newVegas:LeftHandPinky1
								{
									OFFSET 15.989624 -0.606689 -7.535461
									CHANNELS 3 Xrotation Yrotation Zrotation
									JOINT newVegas:LeftHandPinky2
									{
										OFFSET 2.538986 0.000000 0.000000
										CHANNELS 3 Xrotation Yrotation Zrotation
										JOINT newVegas:LeftHandPinky3
										{
											OFFSET 2.593102 0.000000 0.000000
											CHANNELS 3 Xrotation Yrotation Zrotation
											End Site
											{
												OFFSET -0.150902 2.584198 0.152708
											}
										}
									}
								}
							}
							JOINT newVegas:Left_Sleeve
							{
								OFFSET 0.267448 -0.649796 0.577675
								CHANNELS 3 Xrotation Yrotation Zrotation
								End Site
								{
									OFFSET 0.000000 15.991241 0.000000
								}
							}
							JOINT newVegas:Left_CapeC
							{
								OFFSET 15.715958 -8.608795 -6.935905
								CHANNELS 3 Xrotation Yrotation Zrotation
								JOINT newVegas:Left_CapeC1
								{
									OFFSET 0.000000 -8.688499 0.000000
									CHANNELS 3 Xrotation Yrotation Zrotation
									End Site
									{
										OFFSET 0.000000 8.688499 0.000000
									}
								}
							}
						}
						JOINT newVegas:Left_CapeB
						{
							OFFSET 26.118385 -8.608795 -7.079235
							CHANNELS 3 Xrotation Yrotation Zrotation
							JOINT newVegas:Left_CapeB1
							{
								OFFSET 0.000000 -8.688499 0.000000
								CHANNELS 3 Xrotation Yrotation Zrotation
								End Site
								{
									OFFSET 0.000000 8.688499 0.000000
								}
							}
						}
						JOINT newVegas:Left_CapeA
						{
							OFFSET 5.115639 -8.608795 -10.395809
							CHANNELS 3 Xrotation Yrotation Zrotation
							JOINT newVegas:Left_CapeA1
							{
								OFFSET 0.000000 -8.688499 0.000000
								CHANNELS 3 Xrotation Yrotation Zrotation
								End Site
								{
									OFFSET 0.000000 8.688499 0.000000
								}
							}
						}
					}
				}
				JOINT newVegas:RightShoulder
				{
					OFFSET -15.263000 10.923401 -0.547700
					CHANNELS 3 Xrotation Yrotation Zrotation
					JOINT newVegas:RightArm
					{
						OFFSET -25.438599 -2.830597 -13.032500
						CHANNELS 3 Xrotation Yrotation Zrotation
						JOINT newVegas:RightForeArm
						{
							OFFSET -29.960503 0.000000 0.000000
							CHANNELS 3 Xrotation Yrotation Zrotation
							JOINT newVegas:RightHand
							{
								OFFSET -27.849251 0.000000 0.000000
								CHANNELS 3 Xrotation Yrotation Zrotation
								JOINT newVegas:RightHandThumb1
								{
									OFFSET -4.487587 -3.305161 6.305391
									CHANNELS 3 Xrotation Yrotation Zrotation
									JOINT newVegas:RightHandThumb2
									{
										OFFSET -5.480453 -3.164139 3.164143
										CHANNELS 3 Xrotation Yrotation Zrotation
										JOINT newVegas:RightHandThumb3
										{
											OFFSET -5.159721 -2.978973 2.978967
											CHANNELS 3 Xrotation Yrotation Zrotation
											End Site
											{
												OFFSET -2.494507 5.926697 1.738678
											}
										}
									}
								}
								JOINT newVegas:RightHandIndex1
								{
									OFFSET -18.578728 -0.527832 5.208049
									CHANNELS 3 Xrotation Yrotation Zrotation
									JOINT newVegas:RightHandIndex2
									{
										OFFSET -3.192009 0.000000 0.000000
										CHANNELS 3 Xrotation Yrotation Zrotation
										JOINT newVegas:RightHandIndex3
										{
											OFFSET -3.835129 0.000000 0.000000
											CHANNELS 3 Xrotation Yrotation Zrotation
											End Site
											{
												OFFSET 0.034599 3.816971 0.371180
											}
										}
									}
								}
								JOINT newVegas:RightHandMiddle1
								{
									OFFSET -18.476105 0.000000 0.000000
									CHANNELS 3 Xrotation Yrotation Zrotation
									JOINT newVegas:RightHandMiddle2
									{
										OFFSET -3.324875 0.000000 0.000000
										CHANNELS 3 Xrotation Yrotation Zrotation
										JOINT newVegas:RightHandMiddle3
										{
											OFFSET -4.596550 0.000000 0.000000
											CHANNELS 3 Xrotation Yrotation Zrotation
											End Site
											{
												OFFSET -0.057701 4.578827 0.399218
											}
										}
									}
								}
								JOINT newVegas:RightHandRing1
								{
									OFFSET -17.732719 0.121887 -4.201567
									CHANNELS 3 Xrotation Yrotation Zrotation
									JOINT newVegas:RightHandRing2
									{
										OFFSET -2.733170 0.000000 0.000000
										CHANNELS 3 Xrotation Yrotation Zrotation
										JOINT newVegas:RightHandRing3
										{
											OFFSET -3.178268 0.000000 0.000000
											CHANNELS 3 Xrotation Yrotation Zrotation
											End Site
											{
												OFFSET -0.119102 3.170624 0.185394
											}
										}
									}
								}
								JOINT newVegas:RightHandPinky1
								{
									OFFSET -15.989624 -0.606689 -7.535461
									CHANNELS 3 Xrotation Yrotation Zrotation
									JOINT newVegas:RightHandPinky2
									{
										OFFSET -2.538986 0.000000 0.000000
										CHANNELS 3 Xrotation Yrotation Zrotation
										JOINT newVegas:RightHandPinky3
										{
											OFFSET -2.593102 0.000000 0.000000
											CHANNELS 3 Xrotation Yrotation Zrotation
											End Site
											{
												OFFSET 0.150902 2.584198 0.152708
											}
										}
									}
								}
							}
							JOINT newVegas:Right_CapeC
							{
								OFFSET -15.715958 -8.608795 -6.935905
								CHANNELS 3 Xrotation Yrotation Zrotation
								JOINT newVegas:Right_CapeC1
								{
									OFFSET 0.000000 -8.688499 0.000000
									CHANNELS 3 Xrotation Yrotation Zrotation
									End Site
									{
										OFFSET 0.000000 8.688499 0.000000
									}
								}
							}
							JOINT newVegas:Right_Sleeve
							{
								OFFSET -0.267448 -0.649994 0.577675
								CHANNELS 3 Xrotation Yrotation Zrotation
								End Site
								{
									OFFSET 0.000000 15.991302 0.000000
								}
							}
						}
						JOINT newVegas:Right_CapeA
						{
							OFFSET -5.115540 -8.608795 -10.395824
							CHANNELS 3 Xrotation Yrotation Zrotation
							JOINT newVegas:Right_CapeA1
							{
								OFFSET 0.000000 -8.688499 0.000000
								CHANNELS 3 Xrotation Yrotation Zrotation
								End Site
								{
									OFFSET 0.000000 8.688499 0.000000
								}
							}
						}
						JOINT newVegas:Right_CapeB
						{
							OFFSET -26.118187 -8.608795 -7.079266
							CHANNELS 3 Xrotation Yrotation Zrotation
							JOINT newVegas:Right_CapeB1
							{
								OFFSET 0.000000 -8.688499 0.000000
								CHANNELS 3 Xrotation Yrotation Zrotation
								End Site
								{
									OFFSET 0.000000 8.688499 0.000000
								}
							}
						}
					}
				}
				JOINT newVegas:Left_Collar
				{
					OFFSET 18.625099 8.655502 8.828100
					CHANNELS 3 Xrotation Yrotation Zrotation
					JOINT newVegas:Left_Collar1
					{
						OFFSET 14.783401 10.540405 -1.259500
						CHANNELS 3 Xrotation Yrotation Zrotation
						End Site
						{
							OFFSET 0.000000 18.199875 0.000000
						}
					}
				}
				JOINT newVegas:Collar_Back
				{
					OFFSET 0.000000 15.630707 -20.132601
					CHANNELS 3 Xrotation Yrotation Zrotation
					End Site
					{
						OFFSET 0.000000 22.523010 0.000000
					}
				}
				JOINT newVegas:Left_Peck
				{
					OFFSET 17.239599 -5.132599 25.482599
					CHANNELS 3 Xrotation Yrotation Zrotation
					End Site
					{
						OFFSET 0.000000 22.523010 0.000000
					}
				}
				JOINT newVegas:Right_Peck
				{
					OFFSET -17.239599 -5.132202 25.482599
					CHANNELS 3 Xrotation Yrotation Zrotation
					End Site
					{
						OFFSET 0.000000 22.523010 0.000000
					}
				}
				JOINT newVegas:Right_Collar
				{
					OFFSET -18.625099 8.655792 8.828100
					CHANNELS 3 Xrotation Yrotation Zrotation
					JOINT newVegas:Right_Collar1
					{
						OFFSET -14.783401 10.539993 -1.259500
						CHANNELS 3 Xrotation Yrotation Zrotation
						End Site
						{
							OFFSET 0.000000 18.199631 0.000000
						}
					}
				}
			}
		}
		JOINT newVegas:Belly
		{
			OFFSET 0.000000 -6.540398 9.014299
			CHANNELS 3 Xrotation Yrotation Zrotation
			End Site
			{
				OFFSET 0.000000 11.566666 0.000000
			}
		}
	}
	JOINT newVegas:ElvisFacialAnim_Joint
	{
		OFFSET 1.000000 -95.330101 -8.825800
		CHANNELS 3 Xrotation Yrotation Zrotation
		End Site
		{
			OFFSET 0.000000 35.315800 0.000000
		}
	}
}
MOTION
Frames: 4
Frame Time: 0.016667
-0.099622 94.685104 4.088977 -4.120413 -1.661318 0.444866 0.000000 0.000000 -0.000000 -5.091343 7.879873 6.495274 18.592849 9.198311 1.357161 -7.827323 5.329229 -8.482022 -0.000000 0.000000 0.000000 -0.000001 -0.000001 0.000000 -2.444560 -9.080028 -8.057998 19.707177 -8.943374 1.519923 -11.463898 -5.212888 6.913003 -0.000000 -0.000000 0.000000 0.000000 0.000001 -0.000000 3.457095 1.692944 -2.300597 0.710881 0.526839 -0.263052 0.710198 0.523097 -0.267070 1.044031 -0.301004 0.060135 1.044036 -0.301003 0.060133 0.000000 -0.000000 0.000000 1.043962 -0.301008 0.060135 1.044103 -0.301002 0.060136 -0.000000 0.000000 0.000000 0.000000 -0.000000 0.000000 2.730607 -4.471829 -12.384152 -6.603774 -10.273118 -60.669169 -0.000006 -16.775185 -0.000016 21.485706 -10.082262 -12.336689 3.397824 -6.557752 3.595390 15.353586 21.247766 9.263503 -0.000001 -0.000002 -0.000005 -1.222350 -0.461782 -28.262363 0.291708 1.827316 -18.139044 0.000003 0.000000 -0.000001 0.095129 4.196358 -33.991208 0.439509 2.228185 -22.314301 -0.000002 0.000001 0.000000 5.761711 10.460318 -44.834533 0.435457 2.218266 -22.209381 0.000001 -0.000001 -0.000001 11.866691 15.214672 -50.260370 0.411977 2.159911 -21.594866 -0.000003 0.000002 0.000000 0.000001 -0.000001 0.000001 0.000001 -0.000001 0.000001 0.000000 -0.000001 0.000000 0.000000 0.000001 -0.000000 0.000001 0.000001 -0.000001 0.000000 0.000001 -0.000000 0.000000 0.000000 -0.000001 1.996585 1.476375 14.937830 -2.025625 7.814283 63.299960 -0.000002 12.108134 0.000016 6.522651 12.381292 10.265029 -1.352782 9.111904 0.370113 17.058276 -29.720998 -6.078647 -0.000002 -0.000001 0.000001 -1.823890 1.946415 21.104019 0.341689 -1.752638 22.062553 0.000000 0.000002 0.000003 -0.809697 -1.799961 27.787974 0.365845 -1.811039 22.839213 -0.000000 -0.000000 0.000002 2.161599 -6.996776 31.854609 0.441460 -1.980938 25.124426 -0.000000 0.000004 0.000002 4.447231 -11.624207 37.638847 0.491079 -2.083401 26.523588 -0.000001 0.000003 0.000001 0.000001 0.000001 -0.000000 0.000000 0.000001 -0.000001 0.000001 0.000001 -0.000001 -0.000000 0.000001 0.000001 -0.000000 0.000001 0.000001 -0.000000 0.000001 0.000001 -0.000000 0.000001 0.000001 -0.000000 -0.000000 -0.000000 -0.000000 -0.000000 -0.000000 -0.000000 -0.000000 -0.000000 -0.000000 -0.000000 -0.000000 -0.000000 -0.000000 -0.000000 -0.000000 -0.000000 -0.000000 -0.000000 -0.000000 -0.000000 -0.000000 -0.000000 0.000000 0.000000 0.000000 -0.000000 
-0.184152 94.655220 3.847856 -4.300347 -1.283981 0.539171 -0.000000 0.000000 -0.000000 -5.412242 7.812485 6.539119 19.052162 9.200095 1.352049 -8.039536 4.963567 -8.494366 -0.000000 -0.000000 0.000000 -0.000001 0.000002 -0.000000 -2.619199 -8.953037 -7.920752 20.331351 -8.989053 1.352749 -11.725255 -5.694458 6.871074 0.000000 0.000000 0.000000 -0.000001 0.000001 0.000000 3.646145 1.881425 -2.248335 0.742683 0.579923 -0.240280 0.742192 0.575776 -0.244851 1.023173 -0.325317 0.059902 1.023172 -0.325318 0.059903 -0.000000 0.000000 0.000000 1.023174 -0.325318 0.059902 1.023172 -0.325321 0.059904 -0.000000 0.000000 0.000000 -0.000000 0.000000 0.000000 2.723279 -4.477275 -12.342098 -6.439323 -9.530075 -60.740019 0.000004 -16.130146 0.000014 22.222861 -9.762253 -12.288135 3.397821 -6.557751 3.595392 15.386461 21.304743 9.230600 0.000001 -0.000002 -0.000003 -1.171237 -0.431670 -28.161498 0.297631 1.845216 -18.323130 0.000002 -0.000000 -0.000001 0.117157 4.248504 -34.358642 0.437374 2.222921 -22.258702 0.000003 0.000002 0.000001 5.785889 10.499897 -44.722696 0.442101 2.234466 -22.380443 0.000000 -0.000001 -0.000001 12.010697 15.220100 -50.621588 0.430324 2.205652 -22.076457 -0.000001 0.000000 0.000001 0.000001 -0.000003 -0.000000 0.000001 -0.000003 -0.000000 0.000001 -0.000003 -0.000001 0.000000 0.000000 -0.000000 0.000000 -0.000001 -0.000001 0.000000 0.000000 -0.000000 0.000000 -0.000001 -0.000001 1.997862 1.678048 14.926610 -2.716036 8.083344 63.101980 0.000001 12.576849 -0.000021 6.347683 12.451767 10.578706 -1.352781 9.111905 0.370110 17.109373 -29.778225 -6.033860 0.000002 0.000000 -0.000002 -1.914897 1.926754 21.734842 0.354105 -1.782951 22.465030 -0.000001 -0.000001 0.000002 -0.822222 -1.866066 28.591693 0.378297 -1.840321 23.229940 0.000002 0.000000 0.000001 2.205337 -6.995201 32.676516 0.453292 -2.005941 25.464226 0.000000 -0.000001 -0.000001 4.563062 -11.613700 38.479404 0.502022 -2.105164 26.822957 0.000001 0.000005 -0.000002 0.000001 0.000000 -0.000001 0.000000 0.000000 -0.000000 0.000001 0.000000 -0.000001 0.000000 -0.000001 -0.000001 0.000000 -0.000001 -0.000001 0.000000 -0.000001 -0.000001 0.000000 -0.000001 -0.000001 0.000000 0.000000 -0.000000 0.000000 0.000000 -0.000000 0.000000 0.000000 -0.000000 0.000000 0.000000 -0.000000 0.000000 0.000000 -0.000000 0.000000 0.000000 -0.000000 0.000000 0.000000 -0.000000 0.000000 -0.000000 -0.000000 -0.000000 0.000000 -0.000000 
-0.261229 94.636490 3.616198 -4.505399 -0.946794 0.622600 -0.000000 -0.000000 0.000000 -5.647703 7.744392 6.568423 19.426866 9.202271 1.359000 -8.213608 4.631993 -8.505663 -0.000000 -0.000000 -0.000000 -0.000001 -0.000002 0.000000 -2.721443 -8.874002 -7.811897 20.841571 -9.026227 1.228192 -11.925205 -6.095196 6.822582 -0.000000 0.000000 0.000000 0.000000 0.000000 -0.000000 3.850675 2.083918 -2.187310 0.779252 0.636650 -0.214313 0.779022 0.632010 -0.219523 1.002030 -0.349187 0.059693 1.002076 -0.349187 0.059698 0.000000 0.000000 0.000000 1.002087 -0.349190 0.059697 1.002078 -0.349185 0.059698 -0.000000 -0.000000 -0.000000 0.000000 0.000000 0.000000 2.725929 -4.533559 -12.333782 -6.245859 -8.768371 -60.756575 -0.000006 -15.406547 -0.000009 22.884402 -9.466657 -12.270911 3.397819 -6.557749 3.595389 15.418052 21.359229 9.199014 0.000003 0.000000 -0.000004 -1.119844 -0.397988 -28.078604 0.305164 1.867846 -18.556299 0.000002 -0.000001 -0.000003 0.143355 4.310968 -34.824256 0.439440 2.227986 -22.312087 -0.000002 0.000002 -0.000002 5.850563 10.548821 -44.833567 0.441431 2.232814 -22.363023 -0.000000 -0.000004 -0.000002 12.071312 15.267139 -50.593537 0.454695 2.264787 -22.701334 -0.000000 0.000000 0.000000 0.000001 0.000001 0.000000 0.000001 0.000001 0.000000 0.000001 0.000001 0.000000 -0.000000 -0.000001 0.000001 0.000000 -0.000001 0.000000 -0.000000 -0.000001 0.000001 0.000000 -0.000001 0.000000 1.997979 1.881702 14.910771 -3.306480 8.365061 62.900728 0.000003 13.174783 -0.000006 6.023910 12.660641 11.096675 -1.352786 9.111904 0.370108 17.154631 -29.828775 -5.994218 -0.000002 -0.000001 0.000001 -1.992497 1.916382 22.233627 0.366404 -1.812379 22.856878 -0.000006 -0.000001 -0.000002 -0.836416 -1.925785 29.374591 0.391626 -1.871048 23.641733 0.000001 0.000002 0.000002 2.254775 -7.003495 33.488698 0.465561 -2.031489 25.812497 0.000002 -0.000001 -0.000001 4.679346 -11.600653 39.336661 0.513847 -2.128352 27.142847 -0.000000 -0.000000 0.000000 0.000001 -0.000002 0.000000 0.000001 -0.000002 -0.000001 0.000001 -0.000002 -0.000001 0.000001 0.000001 0.000001 0.000002 0.000001 0.000001 0.000001 0.000001 0.000001 0.000002 0.000001 0.000001 -0.000000 0.000000 0.000000 -0.000000 0.000000 0.000000 -0.000000 0.000000 0.000000 -0.000000 0.000000 0.000000 -0.000000 0.000000 0.000000 -0.000000 0.000000 0.000000 -0.000000 0.000000 0.000000 0.000000 -0.000000 -0.000000 -0.000000 -0.000000 0.000000 
-0.331013 94.625923 3.395380 -4.717342 -0.617557 0.693349 -0.000000 0.000000 -0.000000 -5.843227 7.676957 6.597723 19.748940 9.204060 1.376268 -8.360157 4.299478 -8.519505 -0.000000 0.000002 0.000000 0.000000 0.000000 -0.000000 -2.759284 -8.847243 -7.728318 21.245305 -9.051892 1.158921 -12.078410 -6.440469 6.753988 0.000000 0.000000 -0.000000 0.000001 -0.000001 0.000000 4.045904 2.272729 -2.110956 0.816892 0.688821 -0.187654 0.816969 0.683691 -0.193516 0.982072 -0.371608 0.059507 0.982073 -0.371608 0.059507 0.000000 0.000000 -0.000000 0.982143 -0.371604 0.059507 0.982066 -0.371611 0.059508 -0.000000 -0.000000 -0.000000 0.000000 0.000000 -0.000000 2.731424 -4.597781 -12.332037 -6.033516 -7.976578 -60.769211 0.000005 -14.615918 0.000012 23.498369 -9.138158 -12.293610 3.397826 -6.557753 3.595391 15.448430 21.411509 9.168657 0.000003 0.000001 -0.000003 -1.062548 -0.357048 -28.005056 0.313276 1.891804 -18.803195 0.000003 0.000000 -0.000001 0.172066 4.377150 -35.317474 0.444001 2.239077 -22.429264 0.000002 -0.000001 -0.000006 5.951461 10.614494 -45.075379 0.435983 2.219541 -22.222847 -0.000002 -0.000002 -0.000002 12.075865 15.341354 -50.311874 0.484499 2.334695 -23.444136 0.000001 0.000000 -0.000001 0.000001 0.000002 0.000001 0.000001 0.000002 0.000001 0.000001 0.000002 0.000000 0.000000 -0.000001 0.000002 0.000000 -0.000001 0.000001 0.000000 -0.000001 0.000002 0.000000 -0.000001 0.000001 2.000276 2.088531 14.902337 -3.800158 8.674482 62.681138 -0.000001 13.889299 0.000002 5.628965 13.001806 11.760488 -1.352782 9.111906 0.370107 17.142375 -29.817245 -6.000220 0.000003 -0.000001 0.000001 -2.046307 1.896133 22.639888 0.378256 -1.840222 23.228784 0.000001 -0.000001 -0.000001 -0.864188 -1.957211 30.119444 0.405472 -1.902310 24.061744 0.000001 0.000001 -0.000000 2.313615 -7.025319 34.301852 0.478639 -2.058273 26.178715 0.000001 -0.000001 -0.000002 4.785214 -11.581188 40.184592 0.526302 -2.152464 27.476517 -0.000002 0.000001 0.000002 0.000000 0.000001 -0.000000 0.000000 0.000001 -0.000003 0.000000 0.000000 -0.000000 -0.000001 0.000001 -0.000001 -0.000001 0.000000 -0.000001 -0.000001 0.000001 -0.000001 -0.000001 -0.000000 -0.000001 -0.000000 -0.000000 0.000000 -0.000000 -0.000000 0.000000 -0.000000 -0.000000 0.000000 -0.000000 -0.000000 0.000000 -0.000000 -0.000000 0.000000 -0.000000 -0.000000 0.000000 -0.000000 -0.000000 0.000000 0.000000 0.000000 -0.000000 -0.000000 0.000000 -0.000000 
